<?xml version="1.0" encoding="UTF-8"?>
<!DOCTYPE svg PUBLIC "-//W3C//DTD SVG 1.1//EN" "http://www.w3.org/Graphics/SVG/1.1/DTD/svg11.dtd">
<!-- Creator: CorelDRAW -->
<svg xmlns="http://www.w3.org/2000/svg" xml:space="preserve" width="15.875mm" height="15.875mm" version="1.1" style="shape-rendering:geometricPrecision; text-rendering:geometricPrecision; image-rendering:optimizeQuality; fill-rule:evenodd; clip-rule:evenodd"
viewBox="0 0 40.31 40.31"
 xmlns:xlink="http://www.w3.org/1999/xlink"
 xmlns:xodm="http://www.corel.com/coreldraw/odm/2003">
 <defs>
  <style type="text/css">
   <![CDATA[
    .fil3 {fill:none}
    .fil0 {fill:#004677}
    .fil2 {fill:#D72012}
    .fil1 {fill:white}
   ]]>
  </style>
 </defs>
 <g id="Layer_x0020_1">
  <metadata id="CorelCorpID_0Corel-Layer"/>
  <g id="_2601769612544">
   <g>
    <path class="fil0" d="M23.42 4.56c6.63,1.38 11.75,6.87 12.56,13.69 -0.04,-0.29 -0.08,-0.57 -0.13,-0.85l-12.43 0 0 -12.83zm12.68 15.58l0 0.02 -0 0.02 0 -0.01 0 -0.03zm-0.02 0.72c-0.32,7.37 -5.64,13.44 -12.66,14.9l0 -12.87 12.44 0c0.11,-0.66 0.19,-1.34 0.22,-2.03zm-14.8 15.19c-0.37,0.03 -0.74,0.04 -1.12,0.04l-0.01 0 1.12 -0.04zm-1.19 0.04c-0.35,-0 -0.69,-0.01 -1.04,-0.04l1.04 0.04zm-3.18 -0.33c-6.36,-1.32 -11.33,-6.43 -12.44,-12.87l12.44 0 0 12.87zm-12.44 -18.36c1.12,-6.42 6.09,-11.52 12.44,-12.83l0 12.83 -12.44 0z"/>
    <polygon class="fil1" points="20.13,21.97 19.65,21.63 20.13,20.96 "/>
    <polygon class="fil2" points="20.13,21.01 20.09,20.96 20.13,20.86 "/>
    <polygon class="fil1" points="19.65,18.69 20.13,19.37 20.13,18.36 "/>
    <polygon class="fil2" points="20.13,19.32 20.13,19.37 20.13,19.27 "/>
    <path class="fil1" d="M8.34 30.85l11.79 -8.11 11.84 8.12 0 -0c0.81,-0.89 1.51,-1.88 2.11,-2.94l-11.32 -7.76 11.32 -7.76c-0.59,-1.06 -1.3,-2.05 -2.11,-2.94l-11.84 8.12 0 -0 -11.79 -8.11c-0.81,0.89 -1.51,1.88 -2.11,2.94l11.28 7.75 -11.28 7.75c0.59,1.06 1.29,2.05 2.11,2.94z"/>
    <polygon class="fil1" points="20.13,21.97 20.62,21.63 20.13,20.96 "/>
    <polygon class="fil2" points="20.13,21.01 20.24,20.96 20.13,20.86 "/>
    <polygon class="fil1" points="20.62,18.69 20.13,19.37 20.13,18.36 "/>
    <polygon class="fil2" points="20.19,19.32 20.13,19.37 20.13,19.27 "/>
    <path class="fil2" d="M32.47 30.28l-12.34 -8.45 -12.29 8.44 0 -0c-0.45,-0.54 -0.86,-1.11 -1.22,-1.71l12.25 -8.42 -12.24 -8.39c0.37,-0.59 0.77,-1.15 1.22,-1.7l12.29 8.44 0 0.01 12.33 -8.47c0.45,0.54 0.86,1.12 1.23,1.71l-12.27 8.4 12.27 8.41c-0.37,0.59 -0.78,1.16 -1.22,1.71z"/>
    <path class="fil2" d="M22.07 21.73l13.95 0c0.05,-0.52 0.08,-1.04 0.08,-1.57 0,-0.54 -0.03,-1.08 -0.08,-1.62l-13.95 0 0 -14.21c-0.62,-0.08 -1.26,-0.11 -1.91,-0.11l-0.03 0c-0.64,0 -1.27,0.04 -1.88,0.11l0 14.21 -13.95 0c-0.05,0.53 -0.08,1.08 -0.08,1.62 0,0.52 0.03,1.05 0.08,1.57l13.95 0 0 14.25c0.22,0.03 0.45,0.05 0.66,0.07l1.22 0 1.27 0c0.22,-0.02 0.45,-0.04 0.66,-0.07l0 -14.25z"/>
    <path class="fil1" d="M16.91 22.89l-12.45 0c-0.15,-0.88 -0.24,-1.79 -0.24,-2.72 0,-0.94 0.08,-1.87 0.25,-2.77l12.44 0 0 -12.83c1.03,-0.22 2.11,-0.33 3.21,-0.33l0.02 0 0 0 0.02 0 0.01 0c1.12,0 2.2,0.11 3.25,0.33l0 12.83 12.43 0c0.17,0.9 0.25,1.83 0.25,2.77 0,0.93 -0.09,1.84 -0.24,2.72l-12.44 0 0 12.87c-0.66,0.14 -1.33,0.24 -2.01,0.29l-1.25 0.04 -0.04 0 -1.19 -0.04c-0.68,-0.05 -1.36,-0.15 -2.01,-0.29l0 -12.87z"/>
    <path class="fil2" d="M22.07 21.73l13.95 0c0.05,-0.52 0.08,-1.04 0.08,-1.57 0,-0.54 -0.03,-1.08 -0.08,-1.62l-13.95 0 0 -14.21c-0.62,-0.08 -1.26,-0.11 -1.91,-0.11l-0.03 0c-0.64,0 -1.27,0.04 -1.88,0.11l0 14.21 -13.95 0c-0.05,0.53 -0.08,1.08 -0.08,1.62 0,0.52 0.03,1.05 0.08,1.57l13.95 0 0 14.25c0.22,0.03 0.45,0.05 0.66,0.07l1.22 0 1.27 0c0.22,-0.02 0.45,-0.04 0.66,-0.07l0 -14.25z"/>
   </g>
   <rect class="fil3" width="40.31" height="40.31"/>
  </g>
 </g>
</svg>
