<?xml version="1.0" encoding="UTF-8"?>
<!DOCTYPE svg PUBLIC "-//W3C//DTD SVG 1.1//EN" "http://www.w3.org/Graphics/SVG/1.1/DTD/svg11.dtd">
<!-- Creator: CorelDRAW 2019 (64-Bit) -->
<svg xmlns="http://www.w3.org/2000/svg" xml:space="preserve" width="12.551mm" height="12.551mm" version="1.1" style="shape-rendering:geometricPrecision; text-rendering:geometricPrecision; image-rendering:optimizeQuality; fill-rule:evenodd; clip-rule:evenodd"
viewBox="0 0 36.43 36.43"
 xmlns:xlink="http://www.w3.org/1999/xlink">
 <defs>
  <style type="text/css">
   <![CDATA[
    .fil0 {fill:#004677}
    .fil2 {fill:#D72012}
    .fil1 {fill:white}
   ]]>
  </style>
 </defs>
 <g id="Layer_x0020_1">
  <metadata id="CorelCorpID_0Corel-Layer"/>
  <g id="_1258257248">
   <path class="fil0" d="M18.21 0c10.06,0 18.21,8.15 18.21,18.21 0,10.06 -8.15,18.21 -18.21,18.21 -10.06,0 -18.21,-8.15 -18.21,-18.21 0,-10.06 8.15,-18.21 18.21,-18.21z"/>
   <g>
    <g>
     <g>
      <g>
       <path class="fil1" d="M18.18 19.12l-0.55 0.77 -15.34 -10.54c0.68,-1.21 1.48,-2.34 2.41,-3.36l13.48 9.27 0 3.86z"/>
       <path class="fil2" d="M18.18 19.12l0 0.06 -15.44 -10.58c0.42,-0.68 0.88,-1.32 1.39,-1.94l14.05 9.65 0 2.81z"/>
      </g>
      <g>
       <polygon class="fil1" points="18.18,20.28 17.63,19.89 18.18,19.12 "/>
       <polygon class="fil2" points="18.18,19.18 18.13,19.12 18.18,19.01 "/>
      </g>
     </g>
     <g>
      <g>
       <polygon class="fil1" points="17.63,16.53 18.18,17.3 18.18,16.15 "/>
       <polygon class="fil2" points="18.18,17.25 18.18,17.3 18.18,17.19 "/>
      </g>
      <g>
       <path class="fil1" d="M4.7 30.43l13.48 -9.27 0 -3.86 -0.55 -0.77 -15.34 10.54c0.68,1.21 1.48,2.34 2.41,3.36z"/>
       <path class="fil2" d="M4.13 29.76l14.05 -9.65 0 -2.92 -15.45 10.62c0.42,0.68 0.89,1.33 1.4,1.95z"/>
      </g>
     </g>
     <path class="fil1" d="M18.18 36.37l-1.39 0c-0.78,-0.06 -1.55,-0.17 -2.3,-0.33l0 -35.66c1.19,-0.25 2.43,-0.38 3.69,-0.38l0 36.37z"/>
     <g>
      <path class="fil1" d="M18.18 21.33l-17.92 0c-0.17,-1.01 -0.27,-2.05 -0.27,-3.11 0,-1.08 0.09,-2.14 0.28,-3.17l17.91 0 0 6.28z"/>
      <path class="fil2" d="M18.18 20l-18.1 0c-0.06,-0.59 -0.09,-1.19 -0.09,-1.79 0,-0.62 0.03,-1.24 0.09,-1.85l18.09 0 0 3.64z"/>
     </g>
     <path class="fil2" d="M18.18 36.37l-1.39 0c-0.25,-0.02 -0.51,-0.05 -0.76,-0.08l0 -36.17c0.7,-0.08 1.42,-0.13 2.15,-0.13l0 36.37z"/>
    </g>
    <g>
     <g>
      <g>
       <path class="fil1" d="M18.18 19.12l0.55 0.77 15.39 -10.55c-0.68,-1.21 -1.49,-2.34 -2.41,-3.36l-13.53 9.28 0 3.86z"/>
       <path class="fil2" d="M18.18 19.12l0.06 0.06 15.44 -10.58c-0.43,-0.68 -0.9,-1.34 -1.41,-1.96l-14.09 9.68 0 2.81z"/>
      </g>
      <g>
       <polygon class="fil1" points="18.18,20.28 18.74,19.89 18.18,19.12 "/>
       <polygon class="fil2" points="18.18,19.18 18.3,19.12 18.18,19.01 "/>
      </g>
     </g>
     <g>
      <g>
       <polygon class="fil1" points="18.74,16.53 18.18,17.3 18.18,16.15 "/>
       <polygon class="fil2" points="18.24,17.25 18.18,17.3 18.18,17.19 "/>
      </g>
      <g>
       <path class="fil1" d="M31.71 30.44l-13.53 -9.28 0 -3.86 0.55 -0.77 15.39 10.55c-0.68,1.21 -1.48,2.34 -2.41,3.36z"/>
       <path class="fil2" d="M32.28 29.77l-14.1 -9.66 0 -2.92 15.5 10.63c-0.42,0.68 -0.89,1.33 -1.4,1.95z"/>
      </g>
     </g>
     <path class="fil1" d="M18.18 36.37l1.45 0c0.78,-0.06 1.55,-0.17 2.3,-0.33l0 -35.66c-1.2,-0.25 -2.44,-0.38 -3.72,-0.38l-0.03 0 0 36.37z"/>
     <g>
      <path class="fil1" d="M18.18 21.33l17.97 0c0.17,-1.01 0.27,-2.05 0.27,-3.11 0,-1.08 -0.09,-2.14 -0.28,-3.17l-17.97 0 0 6.28z"/>
      <path class="fil2" d="M18.18 20l18.15 0c0.06,-0.59 0.09,-1.19 0.09,-1.79 0,-0.62 -0.03,-1.24 -0.09,-1.85l-18.15 0 0 3.64z"/>
     </g>
     <path class="fil2" d="M18.18 36.37l1.45 0c0.25,-0.02 0.51,-0.05 0.76,-0.08l0 -36.17c-0.71,-0.09 -1.44,-0.13 -2.18,-0.13l-0.03 0 0 36.37z"/>
    </g>
   </g>
  </g>
 </g>
</svg>
