<?xml version="1.0" encoding="UTF-8"?>
<!DOCTYPE svg PUBLIC "-//W3C//DTD SVG 1.1//EN" "http://www.w3.org/Graphics/SVG/1.1/DTD/svg11.dtd">
<!-- Creator: CorelDRAW 2019 (64-Bit) -->
<svg xmlns="http://www.w3.org/2000/svg" xml:space="preserve" width="12.551mm" height="12.551mm" version="1.1" style="shape-rendering:geometricPrecision; text-rendering:geometricPrecision; image-rendering:optimizeQuality; fill-rule:evenodd; clip-rule:evenodd"
viewBox="0 0 27.85 27.85"
 xmlns:xlink="http://www.w3.org/1999/xlink">
 <defs>
  <style type="text/css">
   <![CDATA[
    .fil0 {fill:none}
    .fil1 {fill:#DC2B19}
    .fil2 {fill:#FAF900}
   ]]>
  </style>
 </defs>
 <g id="Layer_x0020_1">
  <metadata id="CorelCorpID_0Corel-Layer"/>
  <g id="_1249177440">
   <path class="fil0" d="M13.93 0c7.69,0 13.93,6.23 13.93,13.93 0,7.69 -6.23,13.93 -13.93,13.93 -7.69,0 -13.93,-6.23 -13.93,-13.93 0,-7.69 6.23,-13.93 13.93,-13.93z"/>
   <path class="fil1" d="M13.69 27.85l0.47 0c5.96,-0.1 11.01,-3.94 12.9,-9.28l-26.27 0c1.89,5.34 6.94,9.18 12.9,9.28z"/>
   <path class="fil1" d="M0.79 9.28l26.26 0c-1.91,-5.41 -7.07,-9.28 -13.13,-9.28 -6.06,0 -11.22,3.87 -13.13,9.28z"/>
   <path class="fil2" d="M1.37 7.9l25.11 0c0.88,1.82 1.37,3.87 1.37,6.03 0,2.16 -0.49,4.2 -1.37,6.03l-25.12 0c-0.88,-1.82 -1.37,-3.87 -1.37,-6.03 0,-2.16 0.49,-4.21 1.37,-6.03z"/>
  </g>
 </g>
</svg>
