<?xml version="1.0" encoding="UTF-8"?>
<!DOCTYPE svg PUBLIC "-//W3C//DTD SVG 1.1//EN" "http://www.w3.org/Graphics/SVG/1.1/DTD/svg11.dtd">
<!-- Creator: CorelDRAW -->
<svg xmlns="http://www.w3.org/2000/svg" xml:space="preserve" width="15.875mm" height="15.875mm" version="1.1" style="shape-rendering:geometricPrecision; text-rendering:geometricPrecision; image-rendering:optimizeQuality; fill-rule:evenodd; clip-rule:evenodd"
viewBox="0 0 37.2 37.2"
 xmlns:xlink="http://www.w3.org/1999/xlink"
 xmlns:xodm="http://www.corel.com/coreldraw/odm/2003">
 <defs>
  <style type="text/css">
   <![CDATA[
    .fil0 {fill:none}
    .fil1 {fill:#DC2B19}
    .fil2 {fill:#FAF900}
   ]]>
  </style>
 </defs>
 <g id="Layer_x0020_1">
  <metadata id="CorelCorpID_0Corel-Layer"/>
  <g id="_2602259446048">
   <path class="fil0" d="M18.6 3.89c8.12,0 14.71,6.58 14.71,14.71 0,8.12 -6.58,14.71 -14.71,14.71 -8.12,0 -14.71,-6.58 -14.71,-14.71 0,-8.12 6.58,-14.71 14.71,-14.71z"/>
   <g>
    <path class="fil1" d="M18.36 33.31l0.5 0c5.73,-0.1 10.67,-3.47 13.01,-8.33l-26.52 0c2.34,4.86 7.28,8.24 13.01,8.33l-0 0zm13.5 -21.07c-2.37,-4.94 -7.42,-8.34 -13.26,-8.34 -5.84,0 -10.89,3.4 -13.26,8.34l26.52 0z"/>
    <path class="fil2" d="M5.35 12.24l26.52 0c0.93,1.92 1.45,4.09 1.45,6.37 0,2.28 -0.52,4.44 -1.45,6.37l-26.53 0c-0.93,-1.92 -1.45,-4.09 -1.45,-6.37 0,-2.28 0.52,-4.45 1.45,-6.37l0.01 0z"/>
   </g>
   <rect class="fil0" width="37.2" height="37.2"/>
  </g>
 </g>
</svg>
