<?xml version="1.0" encoding="UTF-8"?>
<!DOCTYPE svg PUBLIC "-//W3C//DTD SVG 1.1//EN" "http://www.w3.org/Graphics/SVG/1.1/DTD/svg11.dtd">
<!-- Creator: CorelDRAW 2019 (64-Bit) -->
<svg xmlns="http://www.w3.org/2000/svg" xml:space="preserve" width="12.551mm" height="12.551mm" version="1.1" style="shape-rendering:geometricPrecision; text-rendering:geometricPrecision; image-rendering:optimizeQuality; fill-rule:evenodd; clip-rule:evenodd"
viewBox="0 0 30.38 30.38"
 xmlns:xlink="http://www.w3.org/1999/xlink">
 <defs>
  <style type="text/css">
   <![CDATA[
    .fil2 {fill:#004677}
    .fil1 {fill:#D12416}
    .fil0 {fill:white}
   ]]>
  </style>
 </defs>
 <g id="Layer_x0020_1">
  <metadata id="CorelCorpID_0Corel-Layer"/>
  <g id="_2357838351536">
   <path class="fil0" d="M15.19 0c8.39,0 15.19,6.8 15.19,15.19 0,8.39 -6.8,15.19 -15.19,15.19 -8.39,0 -15.19,-6.8 -15.19,-15.19 0,-8.39 6.8,-15.19 15.19,-15.19z"/>
   <path class="fil1" d="M15.96 30.36l-1.54 0c-6.28,-0.31 -11.56,-4.45 -13.56,-10.13l28.66 0c-2,5.68 -7.28,9.81 -13.56,10.13z"/>
   <path class="fil2" d="M29.51 10.13l-28.64 0c-0.56,1.58 -0.87,3.29 -0.87,5.06 0,1.78 0.31,3.48 0.87,5.06l28.64 0c0.56,-1.58 0.87,-3.29 0.87,-5.06 0,-1.78 -0.31,-3.48 -0.87,-5.06z"/>
   <path class="fil0" d="M29.51 10.13l-28.64 0c2.08,-5.9 7.71,-10.13 14.32,-10.13 6.61,0 12.24,4.23 14.32,10.13z"/>
  </g>
 </g>
</svg>
