<?xml version="1.0" encoding="UTF-8"?>
<!DOCTYPE svg PUBLIC "-//W3C//DTD SVG 1.1//EN" "http://www.w3.org/Graphics/SVG/1.1/DTD/svg11.dtd">
<!-- Creator: CorelDRAW 2019 (64-Bit) -->
<svg xmlns="http://www.w3.org/2000/svg" xml:space="preserve" width="11.5676mm" height="11.5676mm" version="1.1" style="shape-rendering:geometricPrecision; text-rendering:geometricPrecision; image-rendering:optimizeQuality; fill-rule:evenodd; clip-rule:evenodd"
viewBox="0 0 14.49 14.49"
 xmlns:xlink="http://www.w3.org/1999/xlink"
 xmlns:xodm="http://www.corel.com/coreldraw/odm/2003">
 <defs>
  <style type="text/css">
   <![CDATA[
    .fil1 {fill:none}
    .fil0 {fill:white}
   ]]>
  </style>
 </defs>
 <g id="Layer_x0020_1">
  <metadata id="CorelCorpID_0Corel-Layer"/>
  <g id="_2096448667760">
   <g id="_1247628032">
    <path class="fil0" d="M10.46 13.58c0.05,-0.05 0.05,-0.14 0,-0.2l-6.14 -6.13 6.14 -6.14c0.05,-0.05 0.05,-0.14 0,-0.19 -0.06,-0.06 -0.15,-0.06 -0.2,0l-6.23 6.23c-0.03,0.03 -0.04,0.06 -0.04,0.1 0,0.03 0.02,0.07 0.04,0.1l6.23 6.23 0 0c0.05,0.06 0.14,0.06 0.19,0.01l0 0z"/>
    <rect class="fil1" transform="matrix(4.08865E-15 0.154379 -0.154379 4.08865E-15 14.4887 1.43152E-08)" width="93.85" height="93.85"/>
   </g>
  </g>
 </g>
</svg>
